# xmcd
#
# Track frame offsets:
#	150
#	9857
#	21068
#	29919
#	40178
#	49101
#	58821
#	68397
#	77293
#	80458
#	89370
#	98723
#	103874
#	113701
#	122615
#	131263
#	142472
#	154521
#	165628
#	175354
#	184253
#	191642
#	201973
#	211894
#	221633
#	232176
#	242449
#	252006
#	255134
#	265439
#	275218
#	284964
#	287181
#
# Disc length: 3964 seconds
#
# Revision: 0
# Processed by: cddbd v1.5.2PL0 Copyright (c) Steve Scherf et al.
# Submitted via: EZCDAudioConverter 2.1.7.1
#
DISCID=e40f7a21
DTITLE=V/A - Pulp and Pop Culture Box 3/4
DYEAR=1900
DGENRE=
TTITLE0=Ricky and The Stompers - The Wild One
TTITLE1=Pete and Jimmy - So Wild
TTITLE2=Ronnie Allen - Juvenile Delinquent
TTITLE3=Kip Tyler - Rumble Rock
TTITLE4=Gene Maltais - Gangwar
TTITLE5=Alan Barnicoat - Savage
TTITLE6=Rocky Holman/Mort Wise and The Wiseman - Wild Boy
TTITLE7=Johnny Stark - Rockin' Billy
TTITLE8=Girls Town
TTITLE9=Steve Wright - Wild Wild Woman
TTITLE10=Johnny Gamble - Wicked Woman
TTITLE11=Sex Education
TTITLE12=John and Jackie - Little Girl
TTITLE13=The Creep - Betty Lou's Got A New Tattoo
TTITLE14=Terry Ann - Motorcycle Jack
TTITLE15=Marcel St. Jean - The Big Black Jacket
TTITLE16=Ron and Joe and The Crew - Riot In Cell Block No. 9
TTITLE17=Joyce Green - Black Cadillac
TTITLE18=Dwight Pullen - Sunglasses After Dark
TTITLE19=Alvie Self - Let's Go Wild
TTITLE20=Damaged Goods
TTITLE21=Joy Russel - Woman
TTITLE22=Johnny Faire - Till The Law Says Stop
TTITLE23=Johnny Knight - Rock and Roll Guitar
TTITLE24=Three Aces and A Joker - Booze  Party
TTITLE25=Jerry Irby - Forty Nine Women
TTITLE26=Tommy Bell - Swamp Gal
TTITLE27=Reform School Girl 
TTITLE28=Don French - Little Blonde Girl
TTITLE29=Wayne Williams - Red Hot Mama
TTITLE30=Myron Lee - Homicide
TTITLE31=Jail Bait
TTITLE32=Johnny Carlton - She's A Moonlighter
EXTD=
EXTT0=
EXTT1=
EXTT2=
EXTT3=
EXTT4=
EXTT5=
EXTT6=
EXTT7=
EXTT8=
EXTT9=
EXTT10=
EXTT11=
EXTT12=
EXTT13=
EXTT14=
EXTT15=
EXTT16=
EXTT17=
EXTT18=
EXTT19=
EXTT20=
EXTT21=
EXTT22=
EXTT23=
EXTT24=
EXTT25=
EXTT26=
EXTT27=
EXTT28=
EXTT29=
EXTT30=
EXTT31=
EXTT32=
PLAYORDER=
